<svg xmlns="http://www.w3.org/2000/svg" viewBox="0 0 800 600">
  <style>
    .leather { fill: #8B4513; }
    .stitch { stroke: #5D4037; stroke-width: 2; fill: none; }
    .toolmark { fill: none; stroke: #3E2723; stroke-width: 1; }
    .pattern { fill: #5D4037; opacity: 0.1; }
  </style>
  
  <!-- Leather Base -->
  <rect class="leather" x="100" y="100" width="600" height="400" rx="10">
    <pattern id="leatherTexture" x="0" y="0" width="20" height="20" patternUnits="userSpaceOnUse">
      <circle class="pattern" cx="10" cy="10" r="1"/>
    </pattern>
  </rect>
  
  <!-- Decorative Border -->
  <g class="stitch">
    <path d="M150 150 h500 v300 h-500 v-300 z" stroke-dasharray="5,5">
      <animate attributeName="stroke-dashoffset" from="0" to="20" dur="2s" repeatCount="indefinite"/>
    </path>
  </g>
  
  <!-- Tooled Pattern -->
  <g class="toolmark">
    <path d="M200 200 q200 0 400 0"/>
    <path d="M200 250 q200 20 400 0"/>
    <path d="M200 300 q200 -20 400 0"/>
  </g>
  
  <!-- Carved Design -->
  <g class="toolmark">
    <circle cx="400" cy="300" r="100"/>
    <circle cx="400" cy="300" r="80"/>
    <path d="M350 300 q50 -50 100 0 q-50 50 -100 0"/>
  </g>
  
  <!-- Corner Flourishes -->
  <g class="toolmark">
    <path d="M150 150 q20 20 40 0 q-20 20 -40 0"/>
    <path d="M650 150 q-20 20 -40 0 q20 20 40 0"/>
    <path d="M150 450 q20 -20 40 0 q-20 -20 -40 0"/>
    <path d="M650 450 q-20 -20 -40 0 q20 -20 40 0"/>
  </g>
</svg>