<?xml version="1.0" encoding="UTF-8"?>
<svg width="300" height="300" viewBox="0 0 300 300" xmlns="http://www.w3.org/2000/svg">
  <defs>
    <path id="circularText" d="M 150,150 m -120,0 a 120,120 0 1,1 240,0 a 120,120 0 1,1 -240,0"/>
  </defs>
  <text>
    <textPath href="#circularText" startOffset="0%" style="font-size: 20px; fill: #0891b2;">
      CRAFTING THE FUTURE OF ART, ONE PIXEL AT A TIME
    </textPath>
  </text>
  <g transform="translate(75,75)" style="fill: #0891b2;">
    <path d="M75 0C33.5786 0 0 33.5786 0 75C0 116.421 33.5786 150 75 150C116.421 150 150 116.421 150 75C150 33.5786 116.421 0 75 0ZM75 135C41.8629 135 15 108.137 15 75C15 41.8629 41.8629 15 75 15C108.137 15 135 41.8629 135 75C135 108.137 108.137 135 75 135Z"/>
    <path d="M75 30C75 30 45 45 45 75C45 105 75 120 75 120C75 120 105 105 105 75C105 45 75 30 75 30Z"/>
    <path d="M75 45C75 45 60 52.5 60 75C60 97.5 75 105 75 105C75 105 90 97.5 90 75C90 52.5 75 45 75 45Z"/>
  </g>
  <text x="150" y="220" text-anchor="middle" style="font-size: 48px; fill: #0891b2; font-weight: bold;">KALAKRITI</text>
  <text x="150" y="250" text-anchor="middle" style="font-size: 16px; fill: #0891b2;">
    कलाया: भविष्यस्य शिल्प, एकैक पिक्सेलम्
  </text>
</svg>